<?xml version="1.0" encoding="UTF-8" standalone="no"?>
<!-- Created with Inkscape (http://www.inkscape.org/) -->

<svg
   xmlns:dc="http://purl.org/dc/elements/1.1/"
   xmlns:cc="http://creativecommons.org/ns#"
   xmlns:rdf="http://www.w3.org/1999/02/22-rdf-syntax-ns#"
   xmlns:svg="http://www.w3.org/2000/svg"
   xmlns="http://www.w3.org/2000/svg"
   xmlns:sodipodi="http://sodipodi.sourceforge.net/DTD/sodipodi-0.dtd"
   xmlns:inkscape="http://www.inkscape.org/namespaces/inkscape"
   width="402"
   height="139"
   id="svg2"
   version="1.1"
   inkscape:version="0.48.2 r9819"
   sodipodi:docname="New document 1">
  <defs
     id="defs4" />
  <sodipodi:namedview
     id="base"
     pagecolor="#ffffff"
     bordercolor="#666666"
     borderopacity="1.0"
     inkscape:pageopacity="0.0"
     inkscape:pageshadow="2"
     inkscape:zoom="1.4"
     inkscape:cx="254.37558"
     inkscape:cy="29.485587"
     inkscape:document-units="px"
     inkscape:current-layer="layer1"
     showgrid="false"
     fit-margin-top="0"
     fit-margin-left="0"
     fit-margin-right="0"
     fit-margin-bottom="0"
     inkscape:window-width="1280"
     inkscape:window-height="752"
     inkscape:window-x="0"
     inkscape:window-y="0"
     inkscape:window-maximized="1" />
  <metadata
     id="metadata7">
    <rdf:RDF>
      <cc:Work
         rdf:about="">
        <dc:format>image/svg+xml</dc:format>
        <dc:type
           rdf:resource="http://purl.org/dc/dcmitype/StillImage" />
        <dc:title></dc:title>
      </cc:Work>
    </rdf:RDF>
  </metadata>
  <g
     inkscape:label="Layer 1"
     inkscape:groupmode="layer"
     id="layer1"
     transform="translate(-530.42859,-654.29077)">
    <g
       id="g3339"
       transform="matrix(1.017872,0,0,1.1776194,-11.274076,-122.48492)">
      <path
         style="fill:#bbbdcc"
         d="m 583.42859,761.61844 c -4.07191,-1.59795 -5,-3.54372 -5,-10.48266 0,-5.51168 0.38958,-7.23459 2,-8.84501 2.5386,-2.53861 8.01825,-2.61556 11.05658,-0.15527 3.13653,2.53981 3.94147,13.72931 1.22326,17.00462 -1.84249,2.22012 -6.65959,3.5066 -9.27984,2.47832 z m 3.24475,-6.82767 c 0.26285,-1.375 0.0903,-2.5 -0.38342,-2.5 -0.47373,0 -0.86133,1.125 -0.86133,2.5 0,1.375 0.17254,2.5 0.38342,2.5 0.21088,0 0.59848,-1.125 0.86133,-2.5 z m -33.99241,5.25 c -1.02529,-1.29122 -2.19483,-16.89938 -1.49863,-20 0.29003,-1.2917 1.39073,-1.75 4.20298,-1.75 3.05685,0 3.96193,0.44479 4.57833,2.25 0.6982,2.04477 0.80583,1.95356 1.17999,-1 0.37451,-2.95634 0.72223,-3.25 3.84835,-3.25 2.93087,0 3.43664,0.34244 3.43664,2.32681 0,1.98714 0.41439,2.26598 2.83874,1.91017 4.92217,-0.72243 6.16126,1.65759 6.16126,11.83445 l 0,8.92857 -3.95956,0 -3.95956,0 -0.33689,-8.25 -0.3369,-8.25 -0.20355,8.25 -0.20354,8.25 -7.37756,0 c -4.70601,0 -7.73697,-0.45265 -8.3701,-1.25 z m 8.74766,-9.30902 c 0,-4.11803 -0.37216,-6.32901 -1,-5.94098 -0.55,0.33992 -1,3.29148 -1,6.55902 0,3.29399 0.44555,5.94098 1,5.94098 0.56502,0 1,-2.85301 1,-6.55902 z m 91.76257,8.99363 c -4.40937,-2.3925 -5.76257,-6.24011 -5.76257,-16.38495 0,-5.55003 -0.39885,-9.04966 -1.03138,-9.04966 -1.59478,0 -2.369,2.99962 -1.1014,4.26722 1.61775,1.61775 1.40229,7.48257 -0.31009,8.44087 -0.94454,0.52859 -1.54894,2.87704 -1.75,6.79969 l -0.30713,5.99222 -5.53484,0.29348 c -4.77853,0.25338 -5.84679,-0.0386 -7.81786,-2.13668 l -2.28302,-2.43017 -2.38669,2.38668 c -2.23995,2.23996 -3.09649,2.38669 -13.93214,2.38669 l -11.54545,0 0,-23.5 0,-23.5 5.03518,0 c 2.94644,0 6.05545,-0.6685 7.49465,-1.6115 l 2.45947,-1.61151 -6.86074,-7.34641 c -8.23847,-8.82167 -10.82974,-13.59625 -9.25487,-17.05271 0.89506,-1.96444 1.82724,-2.37787 5.36147,-2.37787 2.35292,0 5.83193,0.44565 7.73111,0.99033 2.27957,0.65377 3.78963,0.65377 4.4434,0 1.16352,-1.16353 5.57469,-1.28757 7.27777,-0.20467 0.65309,0.41528 1.65445,1.98339 2.22525,3.48469 1.60528,4.22222 3.4934,3.25843 5.56686,-2.84159 2.10633,-6.19673 8.44666,-14.12115 12.01487,-15.01672 5.71277,-1.43381 9.53306,4.28814 9.81597,14.70211 0.1757,6.46778 0.33636,6.93697 2.18961,6.39449 8.40749,-2.46103 17.80136,-4.64412 22.2167,-5.16305 9.12113,-1.07202 10.97552,3.19748 4.29176,9.88124 -2.19534,2.19535 -3.73155,4.41219 -3.4138,4.92633 0.31775,0.51414 -0.14643,2.04 -1.03152,3.39082 -1.26266,1.92706 -2.46641,2.45602 -5.58914,2.45602 -2.68818,0 -5.5206,0.96751 -8.72695,2.981 l -4.74705,2.981 3.5,0.0206 c 8.16613,0.048 13.99528,6.17451 13.99845,14.71265 l 0.002,4.19521 -4.67183,0.30479 c -6.4137,0.41843 -6.88102,2.59901 -0.64237,2.99738 l 4.81375,0.30741 0.27988,12.75 0.27987,12.75 -4.52987,0 c -2.51531,0 -4.52988,-0.46995 -4.52988,-1.0567 0,-0.5923 -0.97677,-0.37255 -2.22251,0.5 -2.77174,1.9414 -7.42767,1.93773 -11.01492,-0.009 z m -22.77788,-11.68461 c -0.008,-2.8875 -0.35978,-4.70806 -0.78079,-4.04568 -0.74296,1.1689 -0.39227,9.29568 0.40114,9.29568 0.21723,0 0.38807,-2.3625 0.37965,-5.25 z m 32.38502,2 c 0.99369,-3.70795 0.71283,-6.60185 -0.72308,-7.45031 -0.74435,-0.43983 -1.60882,-1.47469 -1.92105,-2.29969 -0.78585,-2.07645 -0.86656,5.04512 -0.10058,8.875 0.73411,3.67056 1.89625,4.04104 2.74471,0.875 z m -47.9767,-0.33179 c 1.3007,-3.38957 0.34054,-9.41821 -1.5,-9.41821 -0.49116,0 -0.89301,2.475 -0.89301,5.5 0,5.31365 1.14077,7.1815 2.39301,3.91821 z m 15.60699,-17.38683 c 0,-4.0057 -0.2907,-4.85706 -1.5,-4.39301 -1.81491,0.69645 -2.02587,6.43576 -0.3,8.16163 1.75425,1.75425 1.8,1.65848 1.8,-3.76862 z m 32,-0.94959 c 0,-1.60502 -0.27314,-3.63002 -0.60699,-4.5 -1.16669,-3.04036 -2.39301,-1.5449 -2.39301,2.91821 0,3.33333 0.38889,4.5 1.5,4.5 0.99066,0 1.5,-0.99091 1.5,-2.91821 z m -47.56801,-2.66683 c 0.73052,-2.91065 -0.0885,-6.41496 -1.49938,-6.41496 -0.51293,0 -0.93261,2.025 -0.93261,4.5 0,4.91823 1.40129,6.02161 2.43199,1.91496 z m 32.25734,-3.16496 c -0.25153,-0.9625 -0.45733,-0.175 -0.45733,1.75 0,1.925 0.2058,2.7125 0.45733,1.75 0.25152,-0.9625 0.25152,-2.5375 0,-3.5 z m -16.89024,-3.04296 c -0.52711,-2.71633 -2.79909,-2.57166 -2.79909,0.17824 0,1.8935 0.39969,2.39857 1.54909,1.95751 0.852,-0.32695 1.4145,-1.28803 1.25,-2.13575 z m 13.02751,-4.93423 c 1.68939,-0.69478 3.1734,-4.57012 3.1734,-8.28702 0,-2.1267 -0.92895,-3.59255 -3.53769,-5.58233 l -3.53768,-2.69833 -4.71232,2.56368 c -7.98178,4.3424 -9.322,9.67167 -3.67838,14.62684 3.5081,3.08015 3.5611,3.09121 7.25,1.51278 2.04384,-0.87453 4.31304,-1.83556 5.04267,-2.13562 z m -10.60409,-0.82951 c -4.71741,-3.30421 -0.87469,-12.4433 5.23204,-12.4433 3.07568,0 6.54545,3.2214 6.54545,6.07692 0,2.57801 -5.19497,7.92308 -7.70057,7.92308 -1.01993,0 -2.85455,-0.70052 -4.07692,-1.5567 z m -12.72251,-3.4433 c -0.33992,-0.55 -1.37898,-0.99311 -2.30902,-0.98469 -1.45727,0.0132 -1.48367,0.14929 -0.19098,0.98469 1.95837,1.2656 3.28218,1.2656 2.5,0 z m 4.10417,-3.72917 c -1.01652,-1.01651 -1.85525,0.51389 -1.02122,1.86338 0.63003,1.01942 0.86558,1.02021 1.2043,0.004 0.2316,-0.69478 0.14921,-1.53512 -0.18308,-1.86741 z m 38.64583,-4.16318 c 2.0625,-1.24892 3.75,-3.04806 3.75,-3.99808 0,-3.30486 2.52597,-5.45145 6.25019,-5.31144 3.89092,0.14627 8.74981,-3.39619 8.74981,-6.37921 0,-1.43415 -0.72456,-1.58047 -5.01083,-1.01187 -4.78143,0.63428 -15.48947,3.53384 -21.13364,5.72265 -2.27058,0.88052 -2.74169,1.80359 -3.33203,6.52853 -0.56067,4.48741 -0.36557,5.85879 1.0571,7.43084 1.50972,1.66822 2.02576,1.75017 3.83203,0.60859 1.14805,-0.72558 3.77487,-2.34108 5.83737,-3.59001 z m -40.25606,1.23686 c 2.17194,-1.283 3.02912,-2.80152 3.80959,-6.74873 0.55388,-2.80129 0.77147,-5.47443 0.48353,-5.94032 -0.28794,-0.4659 -2.47134,-0.55499 -4.85201,-0.19799 -4.44731,0.66691 -6.23157,-0.29177 -8.93505,-4.80084 -0.59754,-0.99664 -2.91166,-1.92155 -5.75,-2.29818 l -4.75,-0.6303 0,3.21834 c 0,2.6703 1.32495,4.56663 7.78058,11.13593 4.27932,4.35467 8.14739,7.91758 8.59571,7.91758 0.44832,0 2.07626,-0.74497 3.61765,-1.65549 z m 26.5614,-9.1225 c -0.20819,-0.20819 -1.60408,0.26361 -3.10198,1.04843 l -2.72346,1.42697 2.37643,1.66451 c 2.30958,1.61769 2.39684,1.5882 3.10198,-1.04844 0.39906,-1.49212 0.55522,-2.88328 0.34703,-3.09147 z m -15.61888,0.24398 c -2.6446,-1.41534 -3.89242,-0.52122 -3.92115,2.80969 -0.0144,1.67348 0.1677,1.68104 3.16443,0.13137 l 3.17973,-1.6443 -2.42301,-1.29676 z m 11.0281,-2.54609 c 4.31756,-1.85736 4.88042,-2.46636 5.25644,-5.68724 0.65172,-5.58244 -0.93458,-13.39068 -3.17571,-15.63181 -2.01219,-2.0122 -2.01744,-2.01222 -4.77985,-0.025 -2.47943,1.78364 -10.20851,15.34084 -10.24919,17.97762 -0.0128,0.83113 6.44881,5.32505 7.79837,5.42358 0.17304,0.0126 2.49051,-0.91307 5.14994,-2.05713 z m 35.03544,42.7238 0,-23.6437 10.9349,0 c 6.0142,0 12.06566,0.42991 13.4477,0.95536 3.90858,1.48604 6.00981,5.57293 6.06695,11.80022 0.0421,4.58745 -0.31398,5.73974 -2.15099,6.9607 l -2.20145,1.46318 2.50248,2.16027 c 1.75529,1.51526 2.71775,3.65316 3.22347,7.16027 0.69012,4.78582 0.80172,4.44314 2.60557,-8 1.03651,-7.15 2.1516,-15.025 2.47797,-17.5 l 0.5934,-4.5 10.25,-0.28498 c 5.6375,-0.15674 10.2711,0.0683 10.2969,0.5 0.0258,0.43174 1.55721,9.55998 3.40314,20.28498 l 3.35625,19.5 0.0969,-20.25 0.0968,-20.25 6.25,0.003 6.25,0.003 3.17508,8.74715 3.17509,8.74715 0.0749,-8.75 0.0749,-8.7499 6,0 6,0 0,23.54772 0,23.54771 -6.23999,-0.29771 -6.24,-0.29772 -2.54671,-7.70337 c -1.4007,-4.23686 -2.8677,-8.02436 -3.26001,-8.41667 -0.39231,-0.39231 -0.71329,3.16625 -0.71329,7.90791 l 0,8.62121 -13,0.0221 c -12.77704,0.0218 -13.00023,-0.0161 -13.01365,-2.20454 -0.0456,-7.44404 -4.10522,-9.24897 -4.98635,-2.21699 l -0.5,3.99032 -7.38841,0.2966 -7.3884,0.29661 0.58543,-3.79661 c 0.57757,-3.74566 0.56642,-3.76129 -0.83141,-1.16517 -1.96666,3.65259 -3.26662,3.99065 -17.72721,4.60993 l -12.75,0.54607 0,-23.6437 z m 16.7999,8.0273 c 0.24244,-4.58438 0.003,-5.671 -1.25,-5.671 -1.23002,0 -1.5499,1.25554 -1.5499,6.08333 0,8.07801 2.36935,7.72908 2.7999,-0.41233 z m 32.83039,-4.921 c -0.33164,-1.2375 -0.60913,-4.2375 -0.61664,-6.66667 -0.0187,-6.05012 -1.06376,-4.50732 -1.93142,2.8513 -0.65738,5.57537 -0.55899,6.06537 1.21794,6.06537 1.51668,0 1.8032,-0.48468 1.33012,-2.25 z M 696.2299,727.58973 c 0.21843,-2.9329 -0.12537,-4.20934 -1.25,-4.6409 -1.27559,-0.48949 -1.55131,0.30262 -1.55131,4.45666 0,6.20769 2.34123,6.36167 2.80131,0.18424 z m 81.90765,33.07667 c -0.38993,-0.38993 -0.70896,-10.98396 -0.70896,-23.5423 l 0,-22.83333 7,0 7,0 0.0656,6.75 0.0656,6.75 2.08337,-6.75 2.08337,-6.75 6.35101,0 c 3.4931,0 6.35105,0.30506 6.35105,0.6779 0,0.37285 -1.42084,5.10123 -3.15742,10.50751 l -3.15743,9.8296 3.26407,11.2425 c 1.79524,6.18337 3.49356,12.02999 3.77406,12.99249 0.4515,1.54934 -0.29791,1.75 -6.53569,1.75 l -7.04567,0 -1.57096,-5.40391 c -0.86403,-2.97215 -1.64863,-6.00965 -1.74356,-6.75 -0.0949,-0.74035 -0.43243,1.57891 -0.75,5.15391 l -0.5774,6.5 -6.04104,0.29229 c -3.32257,0.16076 -6.36007,-0.0267 -6.75,-0.41666 z m 38.0051,-19.9949 c -0.39273,-0.39274 -0.71406,-4.91406 -0.71406,-10.0474 0,-8.76667 -0.12546,-9.33333 -2.06642,-9.33333 -1.66432,0 -2.00485,-0.53512 -1.75,-2.75 0.31382,-2.72743 0.37798,-2.75 7.81642,-2.75 7.43844,0 7.5026,0.0226 7.81642,2.75 0.25324,2.20088 -0.089,2.75 -1.71379,2.75 -1.88189,0 -2.05112,0.71229 -2.31642,9.75 l -0.28621,9.75 -3.03594,0.29739 c -1.66977,0.16357 -3.35727,-0.0239 -3.75,-0.41666 z m 12.74455,-0.628 c -0.29021,-0.75626 -0.39961,-6.5225 -0.24313,-12.81387 l 0.28452,-11.43886 3.5,0 c 3.39783,0 3.51648,0.13137 4.06468,4.5 l 0.56467,4.5 0.43533,-4.5 c 0.425,-4.39327 0.51833,-4.5 3.93532,-4.5 l 3.5,0 0,12.5 0,12.5 -3.75,0.31036 -3.75,0.31037 -0.1571,-5.31037 -0.15711,-5.31036 -0.59289,5 c -0.56554,4.76923 -0.74322,5.01449 -3.84978,5.31387 -2.07689,0.20016 -3.44804,-0.1843 -3.78451,-1.06114 z m 18.76115,-11.45423 0.28024,-12.7985 5.75,-0.2999 5.75,-0.29991 0,3.04991 c 0,2.38323 -0.43717,3.0499 -2,3.0499 -1.33333,0 -2,0.66667 -2,2 0,1.33333 0.66667,2 2,2 1.46667,0 2,0.66667 2,2.5 0,1.83333 -0.53333,2.5 -2,2.5 -3.01012,0 -2.78089,4.74999 0.25,5.18045 1.64812,0.23407 2.25,0.98831 2.25,2.81955 0,2.3696 -0.32758,2.51557 -6.28024,2.7985 l -6.28024,0.2985 0.28024,-12.7985 z m 15.78024,10.7015 c -1.71761,-1.71761 -2,-3.33333 -2,-11.4433 0,-8.62481 0.19263,-9.57822 2.22251,-11 3.18552,-2.23122 9.33441,-1.99978 11.77749,0.4433 1.7037,1.7037 2,3.33333 2,11 0,10.74102 -1.39014,13 -8,13 -2.66667,0 -4.66667,-0.66667 -6,-2 z m 5.72847,-14.75 c -0.21575,-2.0625 -0.39226,-0.375 -0.39226,3.75 0,4.125 0.17651,5.8125 0.39226,3.75 0.21574,-2.0625 0.21574,-5.4375 0,-7.5 z m 9.70563,15.43886 c -0.27673,-0.72113 -0.3751,-6.45863 -0.21862,-12.75 l 0.28452,-11.43886 6.22296,0.009 c 7.10857,0.01 9.59376,1.62392 9.49535,6.16679 -0.0876,4.04562 -0.0599,7.07682 0.12175,13.32454 l 0.15994,5.5 -3.5,0 -3.5,0 -0.587,-5.50003 -0.58701,-5.5 -0.16299,5.75 -0.163,5.75 -3.53138,0 c -1.99045,0 -3.75093,-0.57212 -4.03452,-1.31114 z m 8.22818,-17.93886 c -0.27741,-0.6875 -0.50439,-0.125 -0.50439,1.25 0,1.375 0.22698,1.9375 0.50439,1.25 0.27741,-0.6875 0.27741,-1.8125 0,-2.5 z m 12.32271,15.06336 c -0.008,-2.37235 -1.11885,-7.86712 -2.46801,-12.21061 -1.34915,-4.34349 -2.21584,-8.28099 -1.92598,-8.75 0.28987,-0.46901 1.86173,-0.85275 3.49302,-0.85275 2.53952,0 3.06415,0.4673 3.64873,3.25 l 0.68274,3.25 0.54869,-3 c 0.39682,-2.16969 1.18976,-3.09108 2.86498,-3.32908 4.82828,-0.68597 5.26617,0.2485 3.0614,6.5331 -1.11835,3.18779 -2.33873,8.72098 -2.71196,12.29598 -0.67242,6.44078 -0.70821,6.50285 -3.9286,6.81336 -3.21084,0.30958 -3.25018,0.26138 -3.26501,-4 z"
         id="path3345"
         inkscape:connector-curvature="0" />
      <path
         style="fill:#c7292b"
         d="m 553.62859,760.09077 c -0.69091,-0.69091 -1.2,-4 -1.2,-7.8 0,-3.63 -0.45009,-7.05009 -1.0002,-7.6002 -1.76194,-1.76194 1.13427,-6.3842 4.0002,-6.3842 2.86593,0 5.76214,4.62226 4.0002,6.3842 -1.30156,1.30156 -1.30173,12.29581 -2e-4,13.1002 0.55,0.33992 1,1.26648 1,2.05902 0,1.78115 -5.07981,1.96117 -6.8,0.24098 z m 8.46667,0.53333 c -0.36667,-0.36666 -0.66667,-5.76666 -0.66667,-12 l 0,-11.33333 3.5,0 c 2.79702,0 3.5,0.38958 3.5,1.93963 0,1.51952 0.81224,2.00686 3.75,2.25 l 3.75,0.31037 0.28621,9.75 0.28621,9.75 -3.03621,0 -3.03621,0 0,-8.5 c 0,-5 -0.41177,-8.5 -1,-8.5 -0.58823,0 -1,3.5 -1,8.5 l 0,8.5 -2.83333,0 c -1.55834,0 -3.13334,-0.3 -3.5,-0.66667 z m 19.64589,-0.11899 c -1.96661,-1.25048 -3.13007,-5.5427 -2.95194,-10.8902 0.21866,-6.56407 1.74213,-8.32414 7.20512,-8.32414 4.91569,0 7.43426,2.44683 7.43426,7.22251 0,2.57374 -0.29343,2.77749 -4,2.77749 -3.9174,0 -4,0.0735 -4,3.55902 0,2.11803 0.40488,3.30878 1,2.94098 0.55,-0.33992 1,-1.49148 1,-2.55902 0,-1.48998 0.69707,-1.94098 3,-1.94098 2.51477,0 3,0.39519 3,2.4433 0,1.39121 -0.95701,3.11361 -2.22251,4 -2.3359,1.63613 -7.4493,2.05268 -9.46493,0.77104 z m 5.68744,-13.65532 c 0,-0.79254 -0.45,-1.7191 -1,-2.05902 -0.55,-0.33992 -1,0.30852 -1,1.44098 0,1.13246 0.45,2.05902 1,2.05902 0.55,0 1,-0.64844 1,-1.44098 z m 67.32548,13.00454 c -5.78014,-2.55555 -6.35454,-4.53132 -6.46488,-22.23718 -0.11153,-17.8968 0.72176,-21.08232 6.09729,-23.30894 1.79872,-0.74505 5.33556,-1.07491 8.61209,-0.80319 7.64396,0.63389 10.58199,3.57314 11.21619,11.22082 l 0.46149,5.56493 -5.62383,0 -5.62383,0 0,-3.87756 c 0,-4.12581 -2.48752,-7.62151 -3.51608,-4.94113 -0.29686,0.7736 -0.41469,8.13678 -0.26183,16.36262 0.23235,12.5041 0.52383,14.95607 1.77791,14.95607 1.10447,0 1.5797,-1.38434 1.80226,-5.25 0.18416,-3.19866 -0.10889,-5.25 -0.75,-5.25 -0.57874,0 -1.05226,-1.575 -1.05226,-3.5 l 0,-3.5 6.5,0 6.5,0 0,12.5 0,12.5 -3.39301,0 c -2.21898,0 -3.61025,-0.56612 -4.02085,-1.63612 -0.56944,-1.48394 -0.78867,-1.49119 -2.35699,-0.0779 -2.61429,2.35585 -6.36928,2.84025 -9.90367,1.27759 z m -54.09418,-22.7023 0.2687,-23.36126 9.09116,0.12981 c 10.41153,0.14866 13.0115,1.17498 14.9935,5.91856 2.1725,5.19954 1.80939,10.14849 -0.94685,12.90473 l -2.36218,2.36218 2.61218,1.94996 c 2.44132,1.82242 2.61219,2.48058 2.61219,10.06201 0,7.09149 -0.28462,8.39699 -2.26232,10.37694 -2.01974,2.02204 -3.44248,2.30528 -13.2687,2.64161 l -11.00639,0.37673 0.26871,-23.36127 z m 14.2687,8.63874 c 0,-4.89315 -0.31629,-6.03352 -1.75,-6.30963 -1.52494,-0.29368 -1.75,0.51777 -1.75,6.30963 0,5.79186 0.22506,6.60331 1.75,6.30963 1.43371,-0.27611 1.75,-1.41649 1.75,-6.30963 z m 0.31487,-18.47861 c 0.30102,-4.13296 -1.07608,-6.59602 -3.01712,-5.39639 -0.97494,0.60254 -1.06751,8.7719 -0.11025,9.72917 1.53774,1.53774 2.83022,-0.25292 3.12737,-4.33278 z m 64.18513,10.05609 0,-23.07748 9.25,0.006 c 16.25625,0.01 20.75,2.73988 20.75,12.60623 0,4.63806 -0.33981,5.56474 -2.57839,7.03152 -2.38733,1.56423 -2.4429,1.76041 -0.75,2.64737 3.49745,1.83242 4.32839,3.99974 4.32839,11.28965 0,5.59321 -0.42571,7.72444 -1.90935,9.55887 -1.80986,2.23778 -2.61743,2.37784 -15.5,2.68826 l -13.59065,0.32746 0,-23.07748 z m 17.79667,9.32433 c 0.29698,-5.08479 -1.42969,-8.36469 -3.67347,-6.97795 -0.72119,0.44572 -0.88521,9.98514 -0.2132,12.39946 0.0495,0.17783 0.8775,0.17362 1.84,-0.009 1.34339,-0.25539 1.81893,-1.51289 2.04667,-5.41214 z m -0.0357,-18.41013 c 0.3136,-4.19543 -0.97511,-6.50723 -3.16007,-5.66878 -1.6433,0.63059 -2.33727,7.60741 -0.89968,9.045 1.70769,1.7077 3.81046,-0.041 4.05975,-3.37622 z m 14.25706,29.75832 c 0.01,-1.2375 1.35736,-11.25 2.99431,-22.25 1.63695,-11 2.97884,-20.3538 2.98197,-20.78621 0.003,-0.43242 4.38973,-0.65742 9.748,-0.5 l 9.7423,0.28621 3.20677,19.5 c 1.76372,10.725 3.47507,20.9625 3.80301,22.75 l 0.59624,3.25 -7.04532,0 -7.04531,0 0,-4 c 0,-3.56113 -0.26465,-4 -2.4121,-4 -2.03482,0 -2.51781,0.62565 -3.0879,4 l -0.6758,4 -6.4121,0 c -5.98826,0 -6.41091,-0.14872 -6.39407,-2.25 z m 17.62443,-19.89669 c -0.35335,-3.38068 -0.65614,-7.09318 -0.67287,-8.25 -0.0632,-4.37345 -1.76791,0.86842 -2.48675,7.64669 -0.69489,6.55252 -0.64975,6.75 1.54312,6.75 2.16995,0 2.23364,-0.24219 1.6165,-6.14669 z m 16.35754,-0.85331 0,-23 5.41746,0 5.41747,0 3.33253,9.25 3.33254,9.25 0.5,-9 0.5,-9 5.5,0 5.5,0 0.2689,22.79821 0.2689,22.79821 -6.18866,-0.29821 -6.18866,-0.29821 -3.25171,-9.5 -3.25171,-9.5 -0.0785,9.75 -0.0786,9.75 -5.5,0 -5.5,0 0,-23 z m 33,0 0,-23 6,0 6,0 0,8.16667 c 0,4.49166 0.33669,7.82998 0.74819,7.41847 0.41151,-0.41151 1.87401,-3.97401 3.25,-7.91667 l 2.50181,-7.16847 5.25,-0.30226 c 6.30775,-0.36316 6.29226,-0.4364 2.25,10.63965 -1.65,4.52111 -3,9.28254 -3,10.58096 0,1.29841 1.73084,7.37944 3.84631,13.51339 l 3.84631,11.15263 -6.58338,-0.29218 -6.58338,-0.29219 -2.51293,-9 -2.51293,-9 -0.28753,9.25 -0.28752,9.25 -5.96248,0 -5.96247,0 0,-23 z m -147,3 0,-19 5.39851,0 5.39851,0 0.70862,7.05614 c 0.38974,3.88088 0.38568,12.43088 -0.009,19 l -0.71765,11.94386 -5.38949,0 -5.3895,0 0,-19 z m 235.2588,0.26986 c -3.84185,-0.69709 -5.2588,-4.00312 -5.2588,-12.26986 0,-10.27166 1.3622,-12.20422 8.3168,-11.7991 4.30287,0.25065 5.34712,0.70406 6.44659,2.7991 1.81228,3.45333 1.25596,17.44068 -0.76946,19.3462 -1.75746,1.65343 -5.58227,2.49573 -8.73513,1.92366 z m 3.7412,-12.26986 c 0,-4.66667 -0.41667,-8 -1,-8 -0.58333,0 -1,3.33333 -1,8 0,4.66667 0.41667,8 1,8 0.58333,0 1,-3.33333 1,-8 z m -54,2.5 c 0,-8.83333 -0.14035,-9.5 -2,-9.5 -1.46667,0 -2,-0.66667 -2,-2.5 0,-2.42857 0.2,-2.5 7,-2.5 6.8,0 7,0.0714 7,2.5 0,1.83333 -0.53333,2.5 -2,2.5 -1.85965,0 -2,0.66667 -2,9.5 l 0,9.5 -3,0 -3,0 0,-9.5 z m 13,-2.5 0,-12 3,0 c 2.82585,0 3,0.22878 3,3.94098 0,5.41948 1.8104,6.10668 2.19139,0.83181 0.28996,-4.01462 0.50498,-4.29172 3.55861,-4.58615 l 3.25,-0.31336 0,12.06336 0,12.06336 -3.5,0 -3.5,0 0,-5 c 0,-2.75 -0.45,-5 -1,-5 -0.55,0 -1,2.25 -1,5 0,4.88889 -0.0667,5 -3,5 l -3,0 0,-12 z m 19,-0.0523 0,-12.05226 5.25,0.30226 c 4.48258,0.25808 5.25,0.59461 5.25,2.30226 0,1.31273 -0.77318,2.10981 -2.25,2.31955 -2.92591,0.41555 -3.15106,4.18045 -0.25,4.18045 1.46667,0 2,0.66667 2,2.5 0,1.83333 -0.53333,2.5 -2,2.5 -1.46667,0 -2,0.66667 -2,2.5 0,2 0.5,2.5 2.5,2.5 2,0 2.5,0.5 2.5,2.5 0,2.36364 -0.3,2.5 -5.5,2.5 l -5.5,0 0,-12.05226 z m 31,0.0523 0,-12 5.84501,0 c 4.39256,0 6.25627,0.45443 7.5,1.82874 1.81643,2.00713 2.24378,7.68933 0.65229,8.67293 -0.67028,0.41425 -0.67028,1.24086 0,2.49328 0.55148,1.03046 1.0027,3.92815 1.0027,6.43931 0,4.40638 -0.10471,4.56574 -3,4.56574 -2.92856,0 -3,-0.11767 -3,-4.94098 0,-2.71754 -0.45,-5.2191 -1,-5.55902 -0.62086,-0.38371 -1,1.48962 -1,4.94098 l 0,5.55902 -3.5,0 -3.5,0 0,-12 z m 9,-4.94098 c 0,-1.06754 -0.45,-2.2191 -1,-2.55902 -0.56716,-0.35052 -1,0.48962 -1,1.94098 0,1.40746 0.45,2.55902 1,2.55902 0.55,0 1,-0.87344 1,-1.94098 z m 10.99236,12.19098 c -0.004,-2.6125 -0.90076,-7.675 -1.99236,-11.25 -2.51796,-8.24638 -2.54876,-8 1,-8 2.43991,0 3.00286,0.42007 3.01531,2.25 0.0291,4.27888 1.67677,5.20488 2.40015,1.34892 0.59424,-3.16753 1.02933,-3.59892 3.62985,-3.59892 1.62508,0 2.94794,0.1125 2.93968,0.25 -0.008,0.1375 -1.13319,3.85 -2.49986,8.25 -1.36667,4.4 -2.48492,9.6875 -2.48499,11.75 -1.3e-4,3.49997 -0.20016,3.75 -3.00014,3.75 -2.91121,0 -3.00023,-0.14059 -3.00764,-4.75 z M 631.92507,714.92575 c -2.8158,-4.29747 0.91674,-9.63498 6.73778,-9.63498 3.13653,0 4.76574,1.77766 4.76574,5.2 0,6.11387 -8.30543,9.31588 -11.50352,4.43498 z"
         id="path3343"
         inkscape:connector-curvature="0" />
      <path
         style="fill:#292627"
         d="m 554.17859,760.21067 c -1.39317,-0.81145 -1.75,-2.39569 -1.75,-7.76959 0,-3.71267 -0.45009,-7.2004 -1.0002,-7.75051 -1.76194,-1.76194 1.13427,-6.3842 4.0002,-6.3842 2.86593,0 5.76214,4.62226 4.0002,6.3842 -1.30156,1.30156 -1.30173,12.29581 -2e-4,13.1002 0.55,0.33992 1,1.26648 1,2.05902 0,1.66871 -3.6434,1.87909 -6.25,0.36088 z m 7.91667,0.41343 c -0.36667,-0.36666 -0.66667,-5.76666 -0.66667,-12 l 0,-11.33333 3.5,0 c 2.79702,0 3.5,0.38958 3.5,1.93963 0,1.51952 0.81224,2.00686 3.75,2.25 l 3.75,0.31037 0.28621,9.75 0.28621,9.75 -3.03621,0 -3.03621,0 0,-8.5 c 0,-5 -0.41177,-8.5 -1,-8.5 -0.58823,0 -1,3.5 -1,8.5 l 0,8.5 -2.83333,0 c -1.55834,0 -3.13334,-0.3 -3.5,-0.66667 z m 19.64589,-0.11899 c -1.98515,-1.26227 -3.0913,-5.45879 -2.87487,-10.90667 0.2648,-6.66535 1.67393,-8.30767 7.12805,-8.30767 4.91569,0 7.43426,2.44683 7.43426,7.22251 0,2.57374 -0.29343,2.77749 -4,2.77749 -3.9174,0 -4,0.0735 -4,3.55902 0,2.11803 0.40488,3.30878 1,2.94098 0.55,-0.33992 1,-1.49148 1,-2.55902 0,-1.48998 0.69707,-1.94098 3,-1.94098 2.51477,0 3,0.39519 3,2.4433 0,1.39121 -0.95701,3.11361 -2.22251,4 -2.3359,1.63613 -7.4493,2.05268 -9.46493,0.77104 z m 5.68744,-13.65532 c 0,-0.79254 -0.45,-1.7191 -1,-2.05902 -0.55,-0.33992 -1,0.30852 -1,1.44098 0,1.13246 0.45,2.05902 1,2.05902 0.55,0 1,-0.64844 1,-1.44098 z m 67.32548,13.00454 c -5.78014,-2.55555 -6.35454,-4.53132 -6.46488,-22.23718 -0.11153,-17.8968 0.72176,-21.08232 6.09729,-23.30894 1.79872,-0.74505 5.33556,-1.07491 8.61209,-0.80319 7.64396,0.63389 10.58199,3.57314 11.21619,11.22082 l 0.46149,5.56493 -5.62383,0 -5.62383,0 0,-3.87756 c 0,-4.12581 -2.48752,-7.62151 -3.51608,-4.94113 -0.29686,0.7736 -0.41469,8.13678 -0.26183,16.36262 0.23235,12.5041 0.52383,14.95607 1.77791,14.95607 1.10447,0 1.5797,-1.38434 1.80226,-5.25 0.18416,-3.19866 -0.10889,-5.25 -0.75,-5.25 -0.57874,0 -1.05226,-1.575 -1.05226,-3.5 l 0,-3.5 6.5,0 6.5,0 0,12.5 0,12.5 -3.39301,0 c -2.21898,0 -3.61025,-0.56612 -4.02085,-1.63612 -0.56944,-1.48394 -0.78867,-1.49119 -2.35699,-0.0779 -2.61429,2.35585 -6.36928,2.84025 -9.90367,1.27759 z m -54.09418,-22.7023 0.2687,-23.36126 9.09116,0.12981 c 10.41153,0.14866 13.0115,1.17498 14.9935,5.91856 2.1725,5.19954 1.80939,10.14849 -0.94685,12.90473 l -2.36218,2.36218 2.61218,1.94996 c 2.44132,1.82242 2.61219,2.48058 2.61219,10.06201 0,7.09149 -0.28462,8.39699 -2.26232,10.37694 -2.01974,2.02204 -3.44248,2.30528 -13.2687,2.64161 l -11.00639,0.37673 0.26871,-23.36127 z m 14.2687,8.63874 c 0,-4.89315 -0.31629,-6.03352 -1.75,-6.30963 -1.52494,-0.29368 -1.75,0.51777 -1.75,6.30963 0,5.79186 0.22506,6.60331 1.75,6.30963 1.43371,-0.27611 1.75,-1.41649 1.75,-6.30963 z m 0.31487,-18.47861 c 0.30102,-4.13296 -1.07608,-6.59602 -3.01712,-5.39639 -0.97494,0.60254 -1.06751,8.7719 -0.11025,9.72917 1.53774,1.53774 2.83022,-0.25292 3.12737,-4.33278 z m 16.18513,12.97861 0,-19 5.39851,0 5.39851,0 0.70862,7.05614 c 0.38974,3.88088 0.38568,12.43088 -0.009,19 l -0.71765,11.94386 -5.38949,0 -5.3895,0 0,-19 z m 235.2588,0.26986 c -3.84185,-0.69709 -5.2588,-4.00312 -5.2588,-12.26986 0,-10.27166 1.3622,-12.20422 8.3168,-11.7991 4.30287,0.25065 5.34712,0.70406 6.44659,2.7991 1.81228,3.45333 1.25596,17.44068 -0.76946,19.3462 -1.75746,1.65343 -5.58227,2.49573 -8.73513,1.92366 z m 3.7412,-12.26986 c 0,-4.66667 -0.41667,-8 -1,-8 -0.58333,0 -1,3.33333 -1,8 0,4.66667 0.41667,8 1,8 0.58333,0 1,-3.33333 1,-8 z m -54,2.5 c 0,-8.83333 -0.14035,-9.5 -2,-9.5 -1.46667,0 -2,-0.66667 -2,-2.5 0,-2.42857 0.2,-2.5 7,-2.5 6.8,0 7,0.0714 7,2.5 0,1.83333 -0.53333,2.5 -2,2.5 -1.85965,0 -2,0.66667 -2,9.5 l 0,9.5 -3,0 -3,0 0,-9.5 z m 13,-2.5 0,-12 3,0 c 2.82585,0 3,0.22878 3,3.94098 0,5.41948 1.8104,6.10668 2.19139,0.83181 0.28996,-4.01462 0.50498,-4.29172 3.55861,-4.58615 l 3.25,-0.31336 0,12.06336 0,12.06336 -3.5,0 -3.5,0 0,-5 c 0,-2.75 -0.45,-5 -1,-5 -0.55,0 -1,2.25 -1,5 0,4.88889 -0.0667,5 -3,5 l -3,0 0,-12 z m 19,-0.0523 0,-12.05226 5.25,0.30226 c 4.48258,0.25808 5.25,0.59461 5.25,2.30226 0,1.31273 -0.77318,2.10981 -2.25,2.31955 -2.92591,0.41555 -3.15106,4.18045 -0.25,4.18045 1.46667,0 2,0.66667 2,2.5 0,1.83333 -0.53333,2.5 -2,2.5 -1.46667,0 -2,0.66667 -2,2.5 0,2 0.5,2.5 2.5,2.5 2,0 2.5,0.5 2.5,2.5 0,2.36364 -0.3,2.5 -5.5,2.5 l -5.5,0 0,-12.05226 z m 31,0.0523 0,-12 5.84501,0 c 4.39256,0 6.25627,0.45443 7.5,1.82874 1.92906,2.13158 2.18805,7.2382 0.45499,8.97126 -0.93333,0.93333 -0.93333,1.46667 0,2.4 0.66,0.66 1.2,3.36 1.2,6 0,4.66667 -0.0833,4.8 -3,4.8 -2.92856,0 -3,-0.11767 -3,-4.94098 0,-2.71754 -0.45,-5.2191 -1,-5.55902 -0.62086,-0.38371 -1,1.48962 -1,4.94098 l 0,5.55902 -3.5,0 -3.5,0 0,-12 z m 9,-4.94098 c 0,-1.06754 -0.45,-2.2191 -1,-2.55902 -0.56716,-0.35052 -1,0.48962 -1,1.94098 0,1.40746 0.45,2.55902 1,2.55902 0.55,0 1,-0.87344 1,-1.94098 z m 10.99236,12.19098 c -0.004,-2.6125 -0.90076,-7.675 -1.99236,-11.25 -2.51796,-8.24638 -2.54876,-8 1,-8 2.43991,0 3.00286,0.42007 3.01531,2.25 0.0291,4.27888 1.67677,5.20488 2.40015,1.34892 0.59424,-3.16753 1.02933,-3.59892 3.62985,-3.59892 1.62508,0 2.94794,0.1125 2.93968,0.25 -0.008,0.1375 -1.13319,3.85 -2.49986,8.25 -1.36667,4.4 -2.48492,9.6875 -2.48499,11.75 -1.3e-4,3.49997 -0.20016,3.75 -3.00014,3.75 -2.91121,0 -3.00023,-0.14059 -3.00764,-4.75 z M 631.92507,714.92575 c -2.8158,-4.29747 0.91674,-9.63498 6.73778,-9.63498 3.12619,0 4.76574,1.77555 4.76574,5.16104 0,5.99447 -8.37343,9.25106 -11.50352,4.47394 z"
         id="path3341"
         inkscape:connector-curvature="0" />
    </g>
  </g>
</svg>
